<mxfile host="app.diagrams.net" modified="2024-01-29T07:37:28.701Z" agent="Mozilla/5.0 (X11; Linux x86_64) AppleWebKit/537.36 (KHTML, like Gecko) Chrome/120.0.0.0 Safari/537.36" etag="f38YzkaY9jZDe5AZpjyq" version="23.0.2" type="github">
  <diagram name="Page-1" id="WrfL9K_2lgfUzRwE-8nf">
    <mxGraphModel dx="1042" dy="613" grid="1" gridSize="10" guides="1" tooltips="1" connect="1" arrows="1" fold="1" page="1" pageScale="1" pageWidth="850" pageHeight="1100" math="0" shadow="0">
      <root>
        <mxCell id="0" />
        <mxCell id="1" parent="0" />
        <mxCell id="_WorD5RW6yXRQGvCHkTB-3" value="" style="edgeStyle=orthogonalEdgeStyle;rounded=0;orthogonalLoop=1;jettySize=auto;html=1;" edge="1" parent="1" source="_WorD5RW6yXRQGvCHkTB-1" target="_WorD5RW6yXRQGvCHkTB-2">
          <mxGeometry relative="1" as="geometry" />
        </mxCell>
        <mxCell id="_WorD5RW6yXRQGvCHkTB-1" value="User" style="rounded=1;whiteSpace=wrap;html=1;" vertex="1" parent="1">
          <mxGeometry y="250" width="120" height="60" as="geometry" />
        </mxCell>
        <mxCell id="_WorD5RW6yXRQGvCHkTB-2" value="Mengunjungi Perpus" style="whiteSpace=wrap;html=1;rounded=1;" vertex="1" parent="1">
          <mxGeometry x="160" y="250" width="120" height="60" as="geometry" />
        </mxCell>
        <mxCell id="_WorD5RW6yXRQGvCHkTB-7" value="" style="edgeStyle=orthogonalEdgeStyle;rounded=0;orthogonalLoop=1;jettySize=auto;html=1;" edge="1" parent="1" source="_WorD5RW6yXRQGvCHkTB-4" target="_WorD5RW6yXRQGvCHkTB-6">
          <mxGeometry relative="1" as="geometry" />
        </mxCell>
        <mxCell id="_WorD5RW6yXRQGvCHkTB-74" value="" style="edgeStyle=orthogonalEdgeStyle;rounded=0;orthogonalLoop=1;jettySize=auto;html=1;entryX=0.5;entryY=1;entryDx=0;entryDy=0;" edge="1" parent="1" source="_WorD5RW6yXRQGvCHkTB-4" target="_WorD5RW6yXRQGvCHkTB-4">
          <mxGeometry relative="1" as="geometry">
            <mxPoint x="460" y="60" as="targetPoint" />
            <Array as="points">
              <mxPoint x="460" y="240" />
              <mxPoint x="461" y="240" />
            </Array>
          </mxGeometry>
        </mxCell>
        <mxCell id="_WorD5RW6yXRQGvCHkTB-4" value="Isi From Pengunjung" style="whiteSpace=wrap;html=1;rounded=1;" vertex="1" parent="1">
          <mxGeometry x="400" y="140" width="120" height="60" as="geometry" />
        </mxCell>
        <mxCell id="_WorD5RW6yXRQGvCHkTB-9" value="" style="edgeStyle=orthogonalEdgeStyle;rounded=0;orthogonalLoop=1;jettySize=auto;html=1;" edge="1" parent="1" source="_WorD5RW6yXRQGvCHkTB-6" target="_WorD5RW6yXRQGvCHkTB-8">
          <mxGeometry relative="1" as="geometry" />
        </mxCell>
        <mxCell id="_WorD5RW6yXRQGvCHkTB-6" value="Kirim" style="whiteSpace=wrap;html=1;rounded=1;" vertex="1" parent="1">
          <mxGeometry x="560" y="140" width="120" height="60" as="geometry" />
        </mxCell>
        <mxCell id="_WorD5RW6yXRQGvCHkTB-8" value="Daftar Kunjungan" style="whiteSpace=wrap;html=1;rounded=1;" vertex="1" parent="1">
          <mxGeometry x="720" y="140" width="120" height="60" as="geometry" />
        </mxCell>
        <mxCell id="_WorD5RW6yXRQGvCHkTB-13" value="" style="edgeStyle=orthogonalEdgeStyle;rounded=0;orthogonalLoop=1;jettySize=auto;html=1;" edge="1" parent="1" source="_WorD5RW6yXRQGvCHkTB-10" target="_WorD5RW6yXRQGvCHkTB-12">
          <mxGeometry relative="1" as="geometry" />
        </mxCell>
        <mxCell id="_WorD5RW6yXRQGvCHkTB-10" value="Pencarian Buku" style="whiteSpace=wrap;html=1;rounded=1;" vertex="1" parent="1">
          <mxGeometry x="400" y="360" width="120" height="60" as="geometry" />
        </mxCell>
        <mxCell id="_WorD5RW6yXRQGvCHkTB-15" value="" style="edgeStyle=orthogonalEdgeStyle;rounded=0;orthogonalLoop=1;jettySize=auto;html=1;" edge="1" parent="1" source="_WorD5RW6yXRQGvCHkTB-12" target="_WorD5RW6yXRQGvCHkTB-14">
          <mxGeometry relative="1" as="geometry" />
        </mxCell>
        <mxCell id="_WorD5RW6yXRQGvCHkTB-12" value="Masukan Judul Buku" style="whiteSpace=wrap;html=1;rounded=1;" vertex="1" parent="1">
          <mxGeometry x="570" y="360" width="120" height="60" as="geometry" />
        </mxCell>
        <mxCell id="_WorD5RW6yXRQGvCHkTB-17" value="" style="edgeStyle=orthogonalEdgeStyle;rounded=0;orthogonalLoop=1;jettySize=auto;html=1;" edge="1" parent="1" source="_WorD5RW6yXRQGvCHkTB-14" target="_WorD5RW6yXRQGvCHkTB-16">
          <mxGeometry relative="1" as="geometry" />
        </mxCell>
        <mxCell id="_WorD5RW6yXRQGvCHkTB-14" value="Hasil Pencaharian" style="whiteSpace=wrap;html=1;rounded=1;" vertex="1" parent="1">
          <mxGeometry x="720" y="360" width="120" height="60" as="geometry" />
        </mxCell>
        <mxCell id="_WorD5RW6yXRQGvCHkTB-16" value="Lihat Rincian Buku" style="whiteSpace=wrap;html=1;rounded=1;" vertex="1" parent="1">
          <mxGeometry x="720" y="460" width="120" height="60" as="geometry" />
        </mxCell>
        <mxCell id="_WorD5RW6yXRQGvCHkTB-29" value="" style="endArrow=none;html=1;rounded=0;exitX=1;exitY=0.5;exitDx=0;exitDy=0;" edge="1" parent="1" source="_WorD5RW6yXRQGvCHkTB-2">
          <mxGeometry width="50" height="50" relative="1" as="geometry">
            <mxPoint x="400" y="340" as="sourcePoint" />
            <mxPoint x="320" y="280" as="targetPoint" />
          </mxGeometry>
        </mxCell>
        <mxCell id="_WorD5RW6yXRQGvCHkTB-31" value="" style="endArrow=none;html=1;rounded=0;" edge="1" parent="1">
          <mxGeometry width="50" height="50" relative="1" as="geometry">
            <mxPoint x="320" y="280" as="sourcePoint" />
            <mxPoint x="320" y="170" as="targetPoint" />
          </mxGeometry>
        </mxCell>
        <mxCell id="_WorD5RW6yXRQGvCHkTB-32" value="" style="endArrow=none;html=1;rounded=0;" edge="1" parent="1">
          <mxGeometry width="50" height="50" relative="1" as="geometry">
            <mxPoint x="320" y="390" as="sourcePoint" />
            <mxPoint x="320" y="280" as="targetPoint" />
          </mxGeometry>
        </mxCell>
        <mxCell id="_WorD5RW6yXRQGvCHkTB-44" value="" style="edgeStyle=orthogonalEdgeStyle;rounded=0;orthogonalLoop=1;jettySize=auto;html=1;" edge="1" parent="1" target="_WorD5RW6yXRQGvCHkTB-10">
          <mxGeometry relative="1" as="geometry">
            <mxPoint x="320" y="390" as="sourcePoint" />
          </mxGeometry>
        </mxCell>
        <mxCell id="_WorD5RW6yXRQGvCHkTB-51" value="" style="edgeStyle=orthogonalEdgeStyle;rounded=0;orthogonalLoop=1;jettySize=auto;html=1;" edge="1" parent="1" target="_WorD5RW6yXRQGvCHkTB-4">
          <mxGeometry relative="1" as="geometry">
            <mxPoint x="320" y="170" as="sourcePoint" />
          </mxGeometry>
        </mxCell>
        <mxCell id="_WorD5RW6yXRQGvCHkTB-61" value="" style="edgeStyle=orthogonalEdgeStyle;rounded=0;orthogonalLoop=1;jettySize=auto;html=1;" edge="1" parent="1" target="_WorD5RW6yXRQGvCHkTB-16">
          <mxGeometry relative="1" as="geometry">
            <mxPoint x="460" y="490" as="sourcePoint" />
          </mxGeometry>
        </mxCell>
        <mxCell id="_WorD5RW6yXRQGvCHkTB-62" value="" style="endArrow=none;html=1;rounded=0;" edge="1" parent="1">
          <mxGeometry width="50" height="50" relative="1" as="geometry">
            <mxPoint x="460" y="490" as="sourcePoint" />
            <mxPoint x="460" y="420" as="targetPoint" />
          </mxGeometry>
        </mxCell>
        <mxCell id="_WorD5RW6yXRQGvCHkTB-72" value="" style="endArrow=none;html=1;rounded=0;" edge="1" parent="1">
          <mxGeometry width="50" height="50" relative="1" as="geometry">
            <mxPoint x="780" y="240" as="sourcePoint" />
            <mxPoint x="780" y="200" as="targetPoint" />
          </mxGeometry>
        </mxCell>
        <mxCell id="_WorD5RW6yXRQGvCHkTB-75" value="" style="endArrow=none;html=1;rounded=0;" edge="1" parent="1">
          <mxGeometry width="50" height="50" relative="1" as="geometry">
            <mxPoint x="460" y="240" as="sourcePoint" />
            <mxPoint x="780" y="240" as="targetPoint" />
          </mxGeometry>
        </mxCell>
      </root>
    </mxGraphModel>
  </diagram>
</mxfile>
